<?xml version="1.0" encoding="UTF-8"?>
<svg version="1.1" xmlns="http://www.w3.org/2000/svg" width="291" height="225">
<path d="M0 0 C0 0.99 0 1.98 0 3 C-0.83660156 3.46148437 -1.67320312 3.92296875 -2.53515625 4.3984375 C-10.41127799 8.7936407 -17.95531453 13.53343785 -25.421875 18.58984375 C-30.21299475 21.83431562 -35.09967914 24.92329127 -40 28 C-39.11957031 27.7834375 -38.23914063 27.566875 -37.33203125 27.34375 C-36.17058594 27.0653125 -35.00914062 26.786875 -33.8125 26.5 C-32.08966797 26.08234375 -32.08966797 26.08234375 -30.33203125 25.65625 C-27.43181171 25.08504615 -24.93903615 24.86716221 -22 25 C-22.66 26.65 -23.32 28.3 -24 30 C-24.66 30 -25.32 30 -26 30 C-26.22171875 30.51433594 -26.4434375 31.02867188 -26.671875 31.55859375 C-28.53821623 34.98936807 -30.86205972 37.97994439 -33.25 41.0625 C-33.71535156 41.68705078 -34.18070313 42.31160156 -34.66015625 42.95507812 C-39.54128394 49.25482557 -45.09043224 51.16224256 -52.625 53.3125 C-60.97706804 55.80119381 -68.72198102 59.14798734 -76 64 C-75.32195312 63.79503906 -74.64390625 63.59007812 -73.9453125 63.37890625 C-67.61701815 61.54703157 -61.57427161 60.41356589 -55 60 C-56.32706588 68.24676653 -65.06380067 75.53473089 -71 81 C-71.66902344 81.68191406 -72.33804688 82.36382812 -73.02734375 83.06640625 C-80.5978237 90.09336457 -89.12826115 91.36546372 -99 93 C-95.7 93.33 -92.4 93.66 -89 94 C-90 97 -90 97 -92.04125977 98.25854492 C-92.91580811 98.66177979 -93.79035645 99.06501465 -94.69140625 99.48046875 C-95.63564453 99.92197266 -96.57988281 100.36347656 -97.55273438 100.81835938 C-98.54595703 101.27017578 -99.53917969 101.72199219 -100.5625 102.1875 C-101.55958984 102.65091797 -102.55667969 103.11433594 -103.58398438 103.59179688 C-106.05186594 104.73717732 -108.52380545 105.87273227 -111 107 C-101.22104146 106.13931266 -93.18714331 104.00746473 -86 97 C-85.01 95.515 -85.01 95.515 -84 94 C-83.34 94 -82.68 94 -82 94 C-82.58352223 97.65728719 -84.06887178 99.50244173 -86.5625 102.1875 C-88.90008029 104.2936919 -88.90008029 104.2936919 -90 107 C-90.31891731 109.89478787 -90.81290647 110.83718578 -93.046875 112.78125 C-102.23954625 118.62630108 -111.24806678 121.52053653 -122 123 C-116.66690091 125.06655669 -111.33237884 127.12938359 -105.99658203 129.18896484 C-104.18662885 129.88816987 -102.37704894 130.58834204 -100.56787109 131.28955078 C-97.9472961 132.3050417 -95.32561998 133.31760322 -92.703125 134.328125 C-91.85438309 134.65539078 -91.00564117 134.98265656 -90.13117981 135.31983948 C-84.56471508 137.44876642 -78.98443822 139.38941844 -73.27319336 141.09838867 C-69.4693216 142.60710937 -67.51266318 144.80823866 -65 148 C-63.97164637 151.08506088 -63.86631566 153.2694272 -63.875 156.5 C-63.87242187 157.4590625 -63.86984375 158.418125 -63.8671875 159.40625 C-64 162 -64 162 -65 165 C-67.21459961 166.46704102 -67.21459961 166.46704102 -70.15234375 168.00390625 C-71.22911377 168.57415527 -72.30588379 169.1444043 -73.4152832 169.73193359 C-74.57761475 170.33602051 -75.73994629 170.94010742 -76.9375 171.5625 C-78.14147582 172.19758167 -79.34484149 172.83382133 -80.54760742 173.47119141 C-82.3555628 174.42918056 -84.16379513 175.38657784 -85.97389221 176.34051514 C-90.62226624 178.7905592 -95.22920006 181.30575897 -99.8125 183.875 C-101.21599709 184.65912046 -102.61965047 185.44296122 -104.0234375 186.2265625 C-104.78366211 186.65098633 -105.54388672 187.07541016 -106.32714844 187.51269531 C-111.54460361 190.41594129 -116.7736747 193.29821809 -122.00180054 196.18218994 C-124.48176032 197.55023599 -126.96142288 198.91881963 -129.44065857 200.28817749 C-131.18713351 201.25035866 -132.93704883 202.20628659 -134.68701172 203.16210938 C-136.84734028 204.36055841 -138.99092314 205.5898611 -141.11376953 206.85351562 C-142.06751465 207.41232422 -143.02125977 207.97113281 -144.00390625 208.546875 C-144.82834229 209.04541992 -145.65277832 209.54396484 -146.50219727 210.05761719 C-149.80556907 211.3039289 -151.62083941 210.96089359 -155 210 C-157.75048828 208.53222656 -157.75048828 208.53222656 -160.5703125 206.640625 C-161.6212207 205.94364502 -162.67212891 205.24666504 -163.75488281 204.52856445 C-164.87830642 203.76911872 -166.0016776 203.00959542 -167.125 202.25 C-168.29451291 201.47049522 -169.46476946 200.69210505 -170.63574219 199.91479492 C-172.99154051 198.34972045 -175.34420274 196.78011059 -177.69433594 195.20654297 C-182.18973121 192.20585002 -186.71528367 189.25330117 -191.25 186.3125 C-192.04188721 185.79743896 -192.83377441 185.28237793 -193.6496582 184.75170898 C-200.76652345 180.13047095 -207.9334616 175.58904891 -215.09985352 171.04516602 C-222.81164478 166.14458324 -230.42714253 161.11194284 -238 156 C-238.99 155.34 -239.98 154.68 -241 154 C-241.1875 150.375 -241.1875 150.375 -241 147 C-237.7 146.67 -234.4 146.34 -231 146 C-233.97 144.02 -236.94 142.04 -240 140 C-239.505 139.01 -239.505 139.01 -239 138 C-233.72 139.32 -228.44 140.64 -223 142 C-224.629375 140.88625 -226.25875 139.7725 -227.9375 138.625 C-232.875 135.25 -232.875 135.25 -234 133 C-233.28714844 133.144375 -232.57429688 133.28875 -231.83984375 133.4375 C-226.46226157 134.4797232 -221.47639208 135.2433952 -216 135 C-216.5053125 134.57847656 -217.010625 134.15695313 -217.53125 133.72265625 C-218.1809375 133.17480469 -218.830625 132.62695312 -219.5 132.0625 C-220.1496875 131.51722656 -220.799375 130.97195312 -221.46875 130.41015625 C-221.9740625 129.94480469 -222.479375 129.47945312 -223 129 C-223 128.67 -223 128.34 -223 128 C-221.9584375 127.93683594 -220.916875 127.87367188 -219.84375 127.80859375 C-208.66996978 126.92825124 -199.99562307 123.93719861 -190 119 C-188.27536472 118.19850975 -186.54703892 117.40482576 -184.8125 116.625 C-184.17957031 116.32851562 -183.54664063 116.03203125 -182.89453125 115.7265625 C-178.21053913 113.93022738 -173.62697515 113.87154057 -168.65234375 113.8671875 C-167.61177574 113.86575241 -167.61177574 113.86575241 -166.55018616 113.86428833 C-165.09034128 113.86361062 -163.63049332 113.86543628 -162.1706543 113.86962891 C-159.94117455 113.87499116 -157.71189548 113.86966591 -155.48242188 113.86328125 C-154.05989539 113.86394195 -152.63736903 113.86522293 -151.21484375 113.8671875 C-149.28306274 113.86887939 -149.28306274 113.86887939 -147.31225586 113.87060547 C-144.65276097 113.97449964 -142.51625137 114.20130335 -140 115 C-139.52691406 113.88625 -139.05382812 112.7725 -138.56640625 111.625 C-128.85483499 89.07583659 -116.49243916 70.16248841 -100 52 C-99.30261719 51.22914062 -98.60523438 50.45828125 -97.88671875 49.6640625 C-84.07030883 35.16718699 -65.94729067 23.65676636 -48 15 C-47.39091797 14.70528809 -46.78183594 14.41057617 -46.15429688 14.10693359 C-33.42003565 8.09799592 -14.2657137 0 0 0 Z M-95 108 C-96.87923535 108.7105461 -98.75675624 109.42605316 -100.62402344 110.16748047 C-104.84588619 111.64678092 -109.22679741 112.30343521 -113.625 113.0625 C-119.23609176 114.04641679 -124.64106249 114.99707485 -130 117 C-130 117.33 -130 117.66 -130 118 C-117.38212965 118.98108711 -103.5002974 116.29935204 -93 109 C-93.66 108.67 -94.32 108.34 -95 108 Z " fill="#B4881D" transform="translate(276,2)"/>
<path d="M0 0 C0 0.99 0 1.98 0 3 C-0.83660156 3.46148437 -1.67320312 3.92296875 -2.53515625 4.3984375 C-10.41127799 8.7936407 -17.95531453 13.53343785 -25.421875 18.58984375 C-30.21299475 21.83431562 -35.09967914 24.92329127 -40 28 C-39.11957031 27.7834375 -38.23914063 27.566875 -37.33203125 27.34375 C-36.17058594 27.0653125 -35.00914062 26.786875 -33.8125 26.5 C-32.66394531 26.2215625 -31.51539063 25.943125 -30.33203125 25.65625 C-27.43181171 25.08504615 -24.93903615 24.86716221 -22 25 C-22.66 26.65 -23.32 28.3 -24 30 C-24.66 30 -25.32 30 -26 30 C-26.22171875 30.51433594 -26.4434375 31.02867188 -26.671875 31.55859375 C-28.53821623 34.98936807 -30.86205972 37.97994439 -33.25 41.0625 C-33.71535156 41.68705078 -34.18070312 42.31160156 -34.66015625 42.95507812 C-39.54128394 49.25482557 -45.09043224 51.16224256 -52.625 53.3125 C-60.97706804 55.80119381 -68.72198102 59.14798734 -76 64 C-75.32195312 63.79503906 -74.64390625 63.59007812 -73.9453125 63.37890625 C-67.61701815 61.54703157 -61.57427161 60.41356589 -55 60 C-56.32706588 68.24676653 -65.06380067 75.53473089 -71 81 C-72.00353516 82.02287109 -72.00353516 82.02287109 -73.02734375 83.06640625 C-80.5978237 90.09336457 -89.12826115 91.36546372 -99 93 C-95.7 93.33 -92.4 93.66 -89 94 C-90 97 -90 97 -92.04125977 98.25854492 C-92.91580811 98.66177979 -93.79035645 99.06501465 -94.69140625 99.48046875 C-95.63564453 99.92197266 -96.57988281 100.36347656 -97.55273438 100.81835938 C-98.54595703 101.27017578 -99.53917969 101.72199219 -100.5625 102.1875 C-101.55958984 102.65091797 -102.55667969 103.11433594 -103.58398438 103.59179688 C-106.05186594 104.73717732 -108.52380545 105.87273227 -111 107 C-101.22104146 106.13931266 -93.18714331 104.00746473 -86 97 C-85.01 95.515 -85.01 95.515 -84 94 C-83.34 94 -82.68 94 -82 94 C-82.58352223 97.65728719 -84.06887178 99.50244173 -86.5625 102.1875 C-88.90008029 104.2936919 -88.90008029 104.2936919 -90 107 C-90.31891731 109.89478787 -90.81290647 110.83718578 -93.046875 112.78125 C-106.5540484 121.36962615 -118.40462254 122.5928549 -134 122 C-134.92232422 123.66289062 -134.92232422 123.66289062 -135.86328125 125.359375 C-136.67953471 126.82300189 -137.49594944 128.28653884 -138.3125 129.75 C-138.91868164 130.84441406 -138.91868164 130.84441406 -139.53710938 131.9609375 C-141.50528073 135.48124399 -143.4463705 138.85961421 -146 142 C-144.94429697 134.07601725 -143.62518836 126.55542016 -141 119 C-140.60039062 117.81921875 -140.20078125 116.6384375 -139.7890625 115.421875 C-124.58679678 71.92167751 -91.06364485 36.33591648 -50.05273438 16.03613281 C-35.99610218 9.27623482 -15.7829996 0 0 0 Z M-95 108 C-96.87923535 108.7105461 -98.75675624 109.42605316 -100.62402344 110.16748047 C-104.84588619 111.64678092 -109.22679741 112.30343521 -113.625 113.0625 C-119.23609176 114.04641679 -124.64106249 114.99707485 -130 117 C-130 117.33 -130 117.66 -130 118 C-117.38212965 118.98108711 -103.5002974 116.29935204 -93 109 C-93.66 108.67 -94.32 108.34 -95 108 Z " fill="#100B05" transform="translate(276,2)"/>
<path d="M0 0 C8.37198015 -1.29020242 13.56560956 -0.28555069 20.44921875 4.3515625 C21.1376738 4.79878662 21.82612885 5.24601074 22.53544617 5.70678711 C24.70169712 7.12140636 26.85197085 8.55789248 29 10 C29.67347473 10.44784851 30.34694946 10.89569702 31.04083252 11.3571167 C35.11166618 14.06443014 39.1597087 16.80384394 43.19805908 19.55932617 C45.37519449 21.04271688 47.55683977 22.51925714 49.73974609 23.99414062 C56.19248978 28.35669237 62.6354579 32.7296165 69.01622009 37.19702148 C71.46892524 38.91074986 73.93260168 40.60823751 76.39828491 42.30322266 C77.53785747 43.09305453 78.67200242 43.89078292 79.80020142 44.69677734 C86.47899933 49.81725327 86.47899933 49.81725327 94.45703125 51.1171875 C97.46218892 50.16958541 99.90650217 49.28814855 102.5625 47.625 C106.27934983 45.4050385 110.00316405 43.68287829 114 42 C115.64864514 41.15127315 117.2942801 40.29668358 118.9375 39.4375 C123.25646766 37.24163896 127.26095451 35.96536112 132 35 C132 34.34 132 33.68 132 33 C133.05912598 32.53102295 134.11825195 32.0620459 135.20947266 31.57885742 C139.15737436 29.83029041 143.10444321 28.07985024 147.05126953 26.32885742 C148.75612267 25.57281602 150.46119803 24.81727553 152.16650391 24.06225586 C154.62461706 22.97382689 157.08191231 21.88356958 159.5390625 20.79296875 C160.29555084 20.45847214 161.05203918 20.12397552 161.83145142 19.77934265 C162.91189224 19.29918449 162.91189224 19.29918449 164.01416016 18.80932617 C164.69520813 18.50699066 165.3762561 18.20465515 166.07794189 17.89315796 C167.8651309 17.06267209 169.60622895 16.1349179 171.34130859 15.20043945 C174 14 174 14 177 15 C175.70371681 18.88884956 174.42490921 19.13248538 170.84765625 21.00390625 C169.77088623 21.57415527 168.69411621 22.1444043 167.5847168 22.73193359 C166.42238525 23.33602051 165.26005371 23.94010742 164.0625 24.5625 C162.85852418 25.19758167 161.65515851 25.83382133 160.45239258 26.47119141 C158.6444372 27.42918056 156.83620487 28.38657784 155.02610779 29.34051514 C150.37773376 31.7905592 145.77079994 34.30575897 141.1875 36.875 C139.78400291 37.65912046 138.38034953 38.44296122 136.9765625 39.2265625 C135.83622559 39.86319824 135.83622559 39.86319824 134.67285156 40.51269531 C129.45539639 43.41594129 124.2263253 46.29821809 118.99819946 49.18218994 C116.51823968 50.55023599 114.03857712 51.91881963 111.55934143 53.28817749 C109.81286649 54.25035866 108.06295117 55.20628659 106.31298828 56.16210938 C104.15265972 57.36055841 102.00907686 58.5898611 99.88623047 59.85351562 C98.93248535 60.41232422 97.97874023 60.97113281 96.99609375 61.546875 C96.17165771 62.04541992 95.34722168 62.54396484 94.49780273 63.05761719 C91.19443093 64.3039289 89.37916059 63.96089359 86 63 C83.24951172 61.53222656 83.24951172 61.53222656 80.4296875 59.640625 C79.3787793 58.94364502 78.32787109 58.24666504 77.24511719 57.52856445 C76.12169358 56.76911872 74.9983224 56.00959542 73.875 55.25 C72.70548709 54.47049522 71.53523054 53.69210505 70.36425781 52.91479492 C68.00845949 51.34972045 65.65579726 49.78011059 63.30566406 48.20654297 C58.81026879 45.20585002 54.28471633 42.25330117 49.75 39.3125 C48.95811279 38.79743896 48.16622559 38.28237793 47.3503418 37.75170898 C40.23347655 33.13047095 33.0665384 28.58904891 25.90014648 24.04516602 C18.18835522 19.14458324 10.57285747 14.11194284 3 9 C2.01 8.34 1.02 7.68 0 7 C-0.1875 3.375 -0.1875 3.375 0 0 Z " fill="#110C04" transform="translate(35,149)"/>
<path d="M0 0 C2.94517927 0.66228383 5.87843034 1.35381952 8.8125 2.0625 C10.03356445 2.33223633 10.03356445 2.33223633 11.27929688 2.60742188 C18.48244516 4.38702322 23.94550076 7.7938118 30 12 C30.89162842 12.60739014 31.78325684 13.21478027 32.7019043 13.84057617 C35.45953577 15.73060458 38.20003634 17.6433944 40.9375 19.5625 C41.92242432 20.24924805 42.90734863 20.93599609 43.92211914 21.64355469 C48.84727623 25.08039 53.75960713 28.53438019 58.65625 32.01171875 C59.54707275 32.64198975 60.43789551 33.27226074 61.35571289 33.92163086 C63.02501042 35.10379343 64.69109976 36.29050505 66.35327148 37.48266602 C70.51689284 40.42863703 74.64689055 42.969154 79.25219727 45.1640625 C81.41369182 46.19786015 83.45979719 47.37011335 85.5 48.625 C86.1703125 49.02976563 86.840625 49.43453125 87.53125 49.8515625 C88.0159375 50.23054688 88.500625 50.60953125 89 51 C89 51.66 89 52.32 89 53 C94.96564796 52.49228528 99.63809899 50.61407872 105 48 C105 47.34 105 46.68 105 46 C106.03898437 45.5875 107.07796875 45.175 108.1484375 44.75 C118.16664804 40.65246164 125.75003032 35.96514728 133.6640625 28.48046875 C142.91410276 19.7906422 151.56466096 13.62658219 164.51953125 13.703125 C168.61938678 14.19381637 171.09439146 16.09439146 174 19 C173.835 17.741875 173.67 16.48375 173.5 15.1875 C173.17841759 12.73543415 173 10.48349306 173 8 C175.74498338 11.43122923 176.17694424 13.93160747 176.09375 18.1953125 C176.08021484 19.09523926 176.06667969 19.99516602 176.05273438 20.92236328 C176.02663086 21.95079346 176.02663086 21.95079346 176 23 C175.18958252 23.3623877 174.37916504 23.72477539 173.54418945 24.09814453 C170.47051031 25.47302157 167.39714528 26.84859636 164.32397461 28.22460938 C163.00638699 28.81439735 161.68868296 29.40392536 160.37084961 29.99316406 C158.45133521 30.85148947 156.53226915 31.7108107 154.61328125 32.5703125 C153.66269333 32.99512909 153.66269333 32.99512909 152.69290161 33.42852783 C149.5301782 34.84630213 146.37991284 36.28477007 143.24755859 37.76855469 C142.08691895 38.31672852 140.9262793 38.86490234 139.73046875 39.4296875 C138.69688232 39.92452637 137.6632959 40.41936523 136.59838867 40.92919922 C134 42 134 42 131 42 C131 42.66 131 43.32 131 44 C129.6875 44.58333333 128.375 45.16666667 127.0625 45.75 C126.2375 46.11738281 125.4125 46.48476562 124.5625 46.86328125 C122.96050353 47.57392298 121.35662699 48.28035872 119.75 48.98046875 C115.79140102 50.7123558 111.91067862 52.53382124 108.0625 54.5 C104.64038982 56.21638548 101.20467035 57.86167745 97.6875 59.375 C96.90761719 59.71273437 96.12773437 60.05046875 95.32421875 60.3984375 C91.77066795 61.31818006 89.48456347 60.81435096 86.26245117 59.046875 C84.05679863 57.68364968 81.90280125 56.2577975 79.75 54.8125 C78.90300537 54.25296631 78.05601074 53.69343262 77.18334961 53.11694336 C74.69325413 51.4685458 72.20863975 49.8122047 69.72601318 48.15258789 C67.20400441 46.46845431 64.67819167 44.79005684 62.15272522 43.1111145 C50.99014399 35.6894642 39.84578227 28.24057791 28.703125 20.7890625 C26.90628417 19.58849052 25.10941151 18.38796618 23.3125 17.1875 C22.48991699 16.63682861 21.66733398 16.08615723 20.81982422 15.51879883 C17.11173454 13.04330775 13.38989333 10.5987272 9.6171875 8.22265625 C8.94776123 7.80024658 8.27833496 7.37783691 7.58862305 6.94262695 C5.83857004 5.8447704 4.08170095 4.75779896 2.32421875 3.671875 C1.55722656 3.12015625 0.79023437 2.5684375 0 2 C0 1.34 0 0.68 0 0 Z " fill="#604810" transform="translate(36,140)"/>
<path d="M0 0 C3.66666667 0.66666667 7.33333333 1.33333333 11 2 C11.82959229 2.09506836 12.65918457 2.19013672 13.51391602 2.28808594 C20.97769403 3.29361635 25.50307452 5.81907282 31.3125 10.5 C32.97329349 11.78081047 34.63475602 13.06075385 36.296875 14.33984375 C37.09931641 14.96745605 37.90175781 15.59506836 38.72851562 16.24169922 C41.77969921 18.60354619 44.90722587 20.84279323 48.0625 23.0625 C49.17885623 23.85480579 50.29473361 24.64778667 51.41015625 25.44140625 C51.98137207 25.84762207 52.55258789 26.25383789 53.14111328 26.67236328 C55.99285188 28.7091054 58.83249667 30.76244543 61.67114258 32.81738281 C63.21639795 33.93384157 64.76439567 35.04651509 66.31518555 36.15527344 C69.88729724 38.71392002 73.4099756 41.29870552 76.8359375 44.05078125 C83.38097062 49.21473605 88.15368534 52.14783554 96.8671875 51.3515625 C97.57101563 51.23554688 98.27484375 51.11953125 99 51 C99 51.99 99 52.98 99 54 C97.27921959 54.8709379 95.54793677 55.72114558 93.8125 56.5625 C92.84957031 57.03816406 91.88664062 57.51382813 90.89453125 58.00390625 C87.72281223 59.0953885 86.16301775 58.96567452 83 58 C83 57.34 83 56.68 83 56 C82.01 55.6596875 82.01 55.6596875 81 55.3125 C77.81688026 53.91988511 75.07542737 52.21824208 72.16015625 50.34375 C70.04328998 49.02692903 67.89014895 47.85384005 65.6875 46.6875 C62.22964404 44.79028657 59.07964682 42.67011998 55.91015625 40.32421875 C50.24937305 36.16995336 44.51729272 32.1296823 38.75 28.125 C37.75000977 27.42955078 36.75001953 26.73410156 35.71972656 26.01757812 C30.10092229 22.11970231 24.45584412 18.26920551 18.75 14.5 C1.57183084 3.14366168 1.57183084 3.14366168 0 0 Z " fill="#8F6D17" transform="translate(42,135)"/>
<path d="M0 0 C1.175625 0.99 1.175625 0.99 2.375 2 C0.375 3 0.375 3 -2.9375 2.625 C-11.12912559 2.52093216 -18.790372 8.56146709 -25.125 13.25 C-36.17099379 21.25381845 -50.46386854 29.14796152 -63.625 33 C-64.285 32.67 -64.945 32.34 -65.625 32 C-65.625 31.34 -65.625 30.68 -65.625 30 C-64.58601562 29.5875 -63.54703125 29.175 -62.4765625 28.75 C-52.45835196 24.65246164 -44.87496968 19.96514728 -36.9609375 12.48046875 C-28.24846319 4.29565133 -12.57827847 -8.47536382 0 0 Z " fill="#735613" transform="translate(206.625,156)"/>
<path d="M0 0 C0.66 0.33 1.32 0.66 2 1 C-3.04800341 6.17232835 -7.37932647 8.13512745 -14.4375 9.375 C-15.67790039 9.62056641 -15.67790039 9.62056641 -16.94335938 9.87109375 C-18.9584622 10.26712552 -20.9787941 10.63639682 -23 11 C-19.7 11.33 -16.4 11.66 -13 12 C-14 15 -14 15 -16.04125977 16.25854492 C-16.91580811 16.66177979 -17.79035645 17.06501465 -18.69140625 17.48046875 C-19.63564453 17.92197266 -20.57988281 18.36347656 -21.55273438 18.81835938 C-22.54595703 19.27017578 -23.53917969 19.72199219 -24.5625 20.1875 C-25.55958984 20.65091797 -26.55667969 21.11433594 -27.58398438 21.59179688 C-30.05186594 22.73717732 -32.52380545 23.87273227 -35 25 C-33.68 25.66 -32.36 26.32 -31 27 C-34.96 27.33 -38.92 27.66 -43 28 C-43 27.34 -43 26.68 -43 26 C-42.27820557 25.67201416 -41.55641113 25.34402832 -40.81274414 25.00610352 C-37.5616043 23.52721634 -34.31203679 22.04490599 -31.0625 20.5625 C-29.92619141 20.04623047 -28.78988281 19.52996094 -27.61914062 18.99804688 C-26.53955078 18.50498047 -25.45996094 18.01191406 -24.34765625 17.50390625 C-23.34742432 17.04830322 -22.34719238 16.5927002 -21.31665039 16.12329102 C-19.09133568 15.20058591 -19.09133568 15.20058591 -18 14 C-24.27 13.67 -30.54 13.34 -37 13 C-36.67 12.34 -36.34 11.68 -36 11 C-33.33544922 10.30151367 -33.33544922 10.30151367 -29.8046875 9.66796875 C-28.53109375 9.42626953 -27.2575 9.18457031 -25.9453125 8.93554688 C-23.91911971 8.56033503 -21.89227798 8.19056349 -19.86328125 7.83081055 C-12.1001591 6.44004493 -5.96582828 5.3402323 0 0 Z " fill="#030100" transform="translate(200,84)"/>
<path d="M0 0 C0 0.66 0 1.32 0 2 C-1.0725 2.226875 -2.145 2.45375 -3.25 2.6875 C-7.13660852 3.63735455 -7.13660852 3.63735455 -8.875 6.6875 C-9.57625 7.450625 -10.2775 8.21375 -11 9 C-12.890625 8.8203125 -12.890625 8.8203125 -15.125 8.3125 C-18.54029053 7.67920109 -19.66583271 7.79911331 -22.703125 9.625 C-25.211306 11.67848152 -27.60924175 13.81206781 -30 16 C-33 18 -33 18 -35.6875 17.625 C-36.8321875 17.315625 -36.8321875 17.315625 -38 17 C-37.67 16.34 -37.34 15.68 -37 15 C-35.68 15 -34.36 15 -33 15 C-30.58941302 12.85001701 -28.46834856 10.53211433 -26.3359375 8.109375 C-21.73925481 3.12794795 -21.73925481 3.12794795 -17.75 2.4375 C-15 3 -15 3 -12 5 C-11.4225 4.360625 -10.845 3.72125 -10.25 3.0625 C-6.78387192 -0.11478407 -4.66328885 0 0 0 Z " fill="#775A14" transform="translate(168,135)"/>
<path d="M0 0 C0.66 0 1.32 0 2 0 C1.39452827 3.35625685 0.25145057 5.33651168 -1.9375 7.9375 C-2.46214844 8.58589844 -2.98679688 9.23429687 -3.52734375 9.90234375 C-10.70509509 15.99152616 -19.12036835 18.03531759 -28.1875 19.6875 C-30.26476318 20.0849454 -32.34159971 20.48462824 -34.41796875 20.88671875 C-35.38009277 21.07153809 -36.3422168 21.25635742 -37.33349609 21.44677734 C-40.62194978 22.12903664 -43.79319063 23.00666018 -47 24 C-47 23.34 -47 22.68 -47 22 C-39.58862724 19.29702876 -32.18806774 17.73222215 -24.4375 16.3125 C-23.23802734 16.08755859 -22.03855469 15.86261719 -20.80273438 15.63085938 C-17.86948999 15.08160644 -14.93530108 14.53813321 -12 14 C-12 13.34 -12 12.68 -12 12 C-13.65 12.33 -15.3 12.66 -17 13 C-14.80878748 10.80878748 -12.99940878 10.01472659 -10.1875 8.75 C-5.46132081 6.46533906 -3.09842114 4.16350341 0 0 Z " fill="#040100" transform="translate(192,96)"/>
<path d="M0 0 C-1.41842755 4.25528266 -4.47357656 5.18344896 -8.25 7.125 C-9.25353516 7.66447266 -9.25353516 7.66447266 -10.27734375 8.21484375 C-13.82976152 10.07829276 -16.96822371 11.48430768 -21 12 C-21 11.34 -21 10.68 -21 10 C-22.98 10.33 -24.96 10.66 -27 11 C-22.67141963 7.56385304 -17.94999645 5.50865156 -12.9375 3.25 C-12.02677734 2.82589844 -11.11605469 2.40179688 -10.17773438 1.96484375 C-9.30310547 1.56910156 -8.42847656 1.17335937 -7.52734375 0.765625 C-6.73062256 0.40243164 -5.93390137 0.03923828 -5.11303711 -0.33496094 C-3 -1 -3 -1 0 0 Z " fill="#1A1305" transform="translate(212,164)"/>
<path d="M0 0 C0.66 0.33 1.32 0.66 2 1 C-1.78148162 6.23761207 -5.24697961 8.53441166 -11.1875 10.9375 C-12.27321289 11.41026367 -12.27321289 11.41026367 -13.38085938 11.89257812 C-15.22431285 12.66940085 -17.110333 13.34354521 -19 14 C-19.66 13.67 -20.32 13.34 -21 13 C-21 12.34 -21 11.68 -21 11 C-19.90300781 10.54109375 -18.80601562 10.0821875 -17.67578125 9.609375 C-16.22117848 8.98999576 -14.76676112 8.37018098 -13.3125 7.75 C-12.59126953 7.44964844 -11.87003906 7.14929688 -11.12695312 6.83984375 C-6.89481297 5.0233087 -3.47796219 3.10066846 0 0 Z " fill="#806115" transform="translate(162,175)"/>
<path d="M0 0 C-5.9338404 5.41785428 -13.40503093 6.35235061 -21.12890625 6.10546875 C-21.74636719 6.07066406 -22.36382812 6.03585938 -23 6 C-20.33533834 2.54078468 -17.34692894 2.14970135 -13.1875 1.3125 C-11.98480469 1.06113281 -10.78210938 0.80976562 -9.54296875 0.55078125 C-6.28724196 0.04465393 -3.28655052 -0.10569305 0 0 Z " fill="#100B06" transform="translate(177,116)"/>
<path d="M0 0 C-2.87922173 2.42460778 -4.97972353 3.42681716 -8.6875 4 C-13.00947065 4.74692846 -16.90934765 5.92227372 -20.9921875 7.51171875 C-23.34045047 8.08279438 -24.7328312 7.75741738 -27 7 C-18.63910259 3.11121051 -9.35288432 -0.87003575 0 0 Z " fill="#29251E" transform="translate(273,4)"/>
<path d="M0 0 C0 0.66 0 1.32 0 2 C-17.14893617 6.76595745 -17.14893617 6.76595745 -26 6 C-26 5.34 -26 4.68 -26 4 C-21.05 3.67 -16.1 3.34 -11 3 C-11 2.34 -11 1.68 -11 1 C-7.26562152 0.12132271 -3.83225427 -0.08912219 0 0 Z " fill="#140F08" transform="translate(180,108)"/>
<path d="M0 0 C0 0.66 0 1.32 0 2 C-1.0725 2.226875 -2.145 2.45375 -3.25 2.6875 C-7.37218701 4.13026545 -8.64414523 5.41910075 -11 9 C-12.65 8.67 -14.3 8.34 -16 8 C-16 7.34 -16 6.68 -16 6 C-17.32 6 -18.64 6 -20 6 C-20 5.34 -20 4.68 -20 4 C-17 4 -14 4 -11 4 C-10.525625 3.525625 -10.05125 3.05125 -9.5625 2.5625 C-6.70507894 -0.29492106 -3.9435116 0 0 0 Z " fill="#6B5012" transform="translate(168,135)"/>
<path d="M0 0 C5.28 1.32 10.56 2.64 16 4 C16 4.66 16 5.32 16 6 C13.03 5.505 13.03 5.505 10 5 C10 5.66 10 6.32 10 7 C10.99 7.33 11.98 7.66 13 8 C12.01 8.495 12.01 8.495 11 9 C8.3984375 7.63671875 8.3984375 7.63671875 5.375 5.6875 C4.37210938 5.05199219 3.36921875 4.41648438 2.3359375 3.76171875 C1.56507812 3.18035156 0.79421875 2.59898437 0 2 C0 1.34 0 0.68 0 0 Z " fill="#73550A" transform="translate(36,140)"/>
<path d="M0 0 C0 0.99 0 1.98 0 3 C-2.26645058 4.34130761 -4.53760097 5.67316234 -6.8125 7 C-7.77639648 7.57234375 -7.77639648 7.57234375 -8.75976562 8.15625 C-13.66015625 11 -13.66015625 11 -17 11 C-15.37615858 9.85252535 -13.75088944 8.7070709 -12.125 7.5625 C-11.22007812 6.92441406 -10.31515625 6.28632813 -9.3828125 5.62890625 C-7 4 -7 4 -5 3 C-5.33 2.34 -5.66 1.68 -6 1 C-3.92446352 0.4465236 -2.15634036 0 0 0 Z " fill="#040100" transform="translate(276,2)"/>
<path d="M0 0 C-2.89399469 2.34211663 -5.67155428 3.86862171 -9.125 5.25 C-10.42824219 5.78367187 -10.42824219 5.78367187 -11.7578125 6.328125 C-14 7 -14 7 -16 6 C-14.73168307 5.18357746 -13.46024069 4.37200895 -12.1875 3.5625 C-11.47980469 3.11003906 -10.77210938 2.65757813 -10.04296875 2.19140625 C-6.60586789 0.18697841 -3.90084143 -0.10542815 0 0 Z " fill="#211D15" transform="translate(245,12)"/>
<path d="M0 0 C-5.3363834 2.82863975 -10.92410633 4.37974335 -17 4 C-16 2 -16 2 -13.5625 0.875 C-8.98193562 -0.2500509 -4.69039798 -0.1668521 0 0 Z " fill="#211D17" transform="translate(251,29)"/>
<path d="M0 0 C0.33333333 1.33333333 0.66666667 2.66666667 1 4 C1.22558594 4.65484375 1.45117188 5.3096875 1.68359375 5.984375 C2.1044914 8.66564891 1.35621719 9.89778693 0.0625 12.25 C-0.31777344 12.95640625 -0.69804687 13.6628125 -1.08984375 14.390625 C-1.39019531 14.92171875 -1.69054687 15.4528125 -2 16 C-3.26977059 12.19068824 -2.52074507 10.18381007 -1.5625 6.3125 C-1.27503906 5.13300781 -0.98757812 3.95351562 -0.69140625 2.73828125 C-0.46324219 1.83464844 -0.23507813 0.93101562 0 0 Z " fill="#36280A" transform="translate(133,128)"/>
<path d="M0 0 C-0.66 1.65 -1.32 3.3 -2 5 C-2.66 5 -3.32 5 -4 5 C-4.28875 5.639375 -4.5775 6.27875 -4.875 6.9375 C-6 9 -6 9 -8 10 C-6.79618552 7.50638429 -5.54571278 5.31856917 -4 3 C-6.97 2.505 -6.97 2.505 -10 2 C-10 1.67 -10 1.34 -10 1 C-6.59437148 0.22157062 -3.49234244 -0.09978121 0 0 Z " fill="#060402" transform="translate(254,27)"/>
<path d="M0 0 C-3.41965498 3.14608258 -6.40577752 3.74940605 -11 4 C-11.99 3.34 -12.98 2.68 -14 2 C-9.126739 0.4087311 -5.19209404 -0.21192221 0 0 Z " fill="#1D1912" transform="translate(273,4)"/>
<path d="M0 0 C3.63 0.66 7.26 1.32 11 2 C9.02 2.99 9.02 2.99 7 4 C7.33 4.66 7.66 5.32 8 6 C3.67574907 4.59754024 2.927027 3.90270266 0 0 Z " fill="#A35E08" transform="translate(42,135)"/>
<path d="M0 0 C-1.45264038 0.8638129 -2.9123163 1.71580454 -4.375 2.5625 C-5.59316406 3.27599609 -5.59316406 3.27599609 -6.8359375 4.00390625 C-7.55007812 4.33261719 -8.26421875 4.66132813 -9 5 C-9.66 4.67 -10.32 4.34 -11 4 C-7.51147246 0.16261971 -5.09041622 -1.48780432 0 0 Z " fill="#1F1A14" transform="translate(228,20)"/>
<path d="M0 0 C0.59296875 0.20238281 1.1859375 0.40476562 1.796875 0.61328125 C0.50874158 1.4520658 -0.78375756 2.28414908 -2.078125 3.11328125 C-2.79742187 3.57734375 -3.51671875 4.04140625 -4.2578125 4.51953125 C-6.203125 5.61328125 -6.203125 5.61328125 -8.203125 5.61328125 C-8.203125 4.95328125 -8.203125 4.29328125 -8.203125 3.61328125 C-2.99894173 -0.52640999 -2.99894173 -0.52640999 0 0 Z " fill="#1C1610" transform="translate(213.203125,26.38671875)"/>
<path d="M0 0 C1.65 0 3.3 0 5 0 C5.33 0.99 5.66 1.98 6 3 C6.99 3.33 7.98 3.66 9 4 C6.03 3.67 3.06 3.34 0 3 C0 2.01 0 1.02 0 0 Z " fill="#1C1408" transform="translate(143,120)"/>
<path d="M0 0 C0.33 1.32 0.66 2.64 1 4 C-2 6 -2 6 -4.6875 5.625 C-5.450625 5.41875 -6.21375 5.2125 -7 5 C-6.67 4.34 -6.34 3.68 -6 3 C-4.68 3 -3.36 3 -2 3 C-1.34 2.01 -0.68 1.02 0 0 Z " fill="#8C6B17" transform="translate(137,147)"/>
<path d="M0 0 C-0.33 0.66 -0.66 1.32 -1 2 C-4.3 2 -7.6 2 -11 2 C-11 1.34 -11 0.68 -11 0 C-3.375 -1.125 -3.375 -1.125 0 0 Z " fill="#1B1710" transform="translate(165,112)"/>
<path d="M0 0 C1.98 0 3.96 0 6 0 C5.01 0.495 5.01 0.495 4 1 C4 1.66 4 2.32 4 3 C4.99 3.33 5.98 3.66 7 4 C6.67 4.66 6.34 5.32 6 6 C3.97945196 4.35830472 1.97956942 2.69088222 0 1 C0 0.67 0 0.34 0 0 Z " fill="#CB980F" transform="translate(53,130)"/>
<path d="M0 0 C-3.26545761 1.88391785 -6.28111761 2.49287967 -10 3 C-10 2.34 -10 1.68 -10 1 C-6.52674819 -0.1577506 -3.63932552 -0.06866652 0 0 Z " fill="#1B1610" transform="translate(215,64)"/>
</svg>
